<?xml version="1.0" encoding="utf-8"?>
<!-- Generator: Adobe Illustrator 23.0.1, SVG Export Plug-In . SVG Version: 6.00 Build 0)  -->
<svg version="1.1" id="Layer_1" xmlns="http://www.w3.org/2000/svg" xmlns:xlink="http://www.w3.org/1999/xlink" x="0px" y="0px"
	 viewBox="0 0 676 248" style="enable-background:new 0 0 676 248;" xml:space="preserve">
<style type="text/css">
	.st0{opacity:0.3;fill:#1FB79E;enable-background:new    ;}
	.st3{fill:#C6ECE5;}
	.st7{fill:none;}
	.st8{font-family:'Audiowide';font-weight: bold;}
	.st9{font-size:15px;}
</style>
<g>
	<g>
		<path class="st0" d="M363.3,176.1h-47.1c-2.2,0-4-1.8-4-4s1.8-4,4-4h47.1c2.2,0,4,1.8,4,4S365.5,176.1,363.3,176.1"/>
		<path class="st1" d="M394.3,176.1h-13.1c-2.2,0-4-1.8-4-4s1.8-4,4-4h13.1c2.2,0,4,1.8,4,4S396.5,176.1,394.3,176.1"/>
		<path class="st1" d="M408.2,204.8h-91.5c-2.2,0-4-1.8-4-4s1.8-4,4-4h91.5c2.2,0,4,1.8,4,4S410.4,204.8,408.2,204.8"/>
		<path class="st1" d="M321.9,234.2h-16.3c-2.2,0-4-1.8-4-4s1.8-4,4-4h16.3c2.2,0,4,1.8,4,4S324.1,234.2,321.9,234.2"/>
		<path class="st1" d="M400.9,234.2h-61.3c-2.2,0-4-1.8-4-4s1.8-4,4-4h61.3c2.2,0,4,1.8,4,4S403.1,234.2,400.9,234.2"/>
	</g>
	<path class="st1" d="M253.5,232.9H48.5c-6.3,0-11.4-5.1-11.4-11.4v-139c0-6.3,5.1-11.4,11.4-11.4h204.9c6.3,0,11.4,5.1,11.4,11.4
		v139C264.9,227.7,259.8,232.9,253.5,232.9 M48.5,79c-1.9,0-3.4,1.5-3.4,3.4v139c0,1.9,1.5,3.4,3.4,3.4h204.9c1.9,0,3.4-1.5,3.4-3.4
		v-139c0-1.9-1.5-3.4-3.4-3.4H48.5"/>
	<g>
		<path class="st1" d="M275.5,243.5H26.5c-4,0-7.3-3.3-7.3-7.3v-4.4c0-1.6,1.3-2.9,2.9-2.9h257.9c1.6,0,2.9,1.3,2.9,2.9v4.4
			C282.9,240.2,279.6,243.5,275.5,243.5"/>
		<path class="st1" d="M275.5,247.5H26.5c-6.2,0-11.3-5.1-11.3-11.3v-4.4c0-3.8,3.1-6.9,6.9-6.9h257.9c3.8,0,6.9,3.1,6.9,6.9v4.4
			C286.9,242.4,281.8,247.5,275.5,247.5 M23.1,232.9v3.3c0,1.8,1.5,3.3,3.3,3.3h249.1c1.8,0,3.3-1.5,3.3-3.3v-3.3H23.1"/>
	</g>
	<g>
		<g>
			<path class="st1" d="M40.8,183.1h-7.3c-8.1,0-14.6-6.6-14.6-14.6v-36.6c0-8.1,6.6-14.7,14.6-14.7h7.3V183.1"/>
			<path class="st1" d="M40.8,187.1h-7.3c-10.3,0-18.6-8.4-18.6-18.6v-36.6c0-10.3,8.4-18.7,18.6-18.7h7.3c2.2,0,4,1.8,4,4v65.9
				C44.8,185.3,43,187.1,40.8,187.1 M33.4,121.1c-5.9,0-10.6,4.8-10.6,10.7v36.6c0,5.9,4.8,10.6,10.6,10.6h3.3v-57.9L33.4,121.1"/>
		</g>
		<g>
			<path class="st1" d="M18.8,172.1h-4.9c-5.4,0-9.8-4.4-9.8-9.8v-24.4c0-5.4,4.4-9.8,9.8-9.8h4.9V172.1"/>
			<path class="st1" d="M18.8,176.1h-4.9c-7.6,0-13.8-6.2-13.8-13.8v-24.4c0-7.6,6.2-13.8,13.8-13.8h4.9c2.2,0,4,1.8,4,4v44
				C22.8,174.3,21,176.1,18.8,176.1 M13.9,132.1c-3.2,0-5.8,2.6-5.8,5.8v24.4c0,3.2,2.6,5.8,5.8,5.8h0.9v-36L13.9,132.1L13.9,132.1z
				"/>
		</g>
		<g>
			<path class="st1" d="M261.2,117.1h7.3c8.1,0,14.6,6.6,14.6,14.6v36.6c0,8.1-6.6,14.6-14.6,14.6h-7.3V117.1"/>
			<path class="st1" d="M268.6,187.1h-7.3c-2.2,0-4-1.8-4-4v-65.9c0-2.2,1.8-4,4-4h7.3c10.3,0,18.6,8.4,18.6,18.6v36.6
				C287.2,178.7,278.9,187.1,268.6,187.1 M265.2,179.1h3.3c5.9,0,10.6-4.8,10.6-10.6v-36.6c0-5.9-4.8-10.7-10.6-10.7h-3.3V179.1"/>
		</g>
		<g>
			<path class="st1" d="M283.2,128.1h4.9c5.4,0,9.8,4.4,9.8,9.8v24.4c0,5.4-4.4,9.8-9.8,9.8h-4.9V128.1"/>
			<path class="st1" d="M288.1,176.1h-4.9c-2.2,0-4-1.8-4-4v-44c0-2.2,1.8-4,4-4h4.9c7.6,0,13.8,6.2,13.8,13.8v24.4
				C301.9,169.9,295.7,176.1,288.1,176.1 M287.2,168.1h0.9c3.2,0,5.8-2.6,5.8-5.8v-24.4c0-3.2-2.6-5.8-5.8-5.8h-0.9V168.1"/>
		</g>
		<path class="st1" d="M294.2,94.3c-0.3-0.7-8.3-18.1-29.9-35.4c-1.1-0.9-2.2-1.7-3.4-2.6c1.5-5-0.5-10.6-5.1-13.5
			C227.6,25,193.1,16.3,153.2,16.5h-3.6c-39.8-0.2-74.2,8.5-102.3,26c-4.5,2.8-6.5,8.1-5.3,13c-1.5,1.1-2.9,2.2-4.3,3.3
			C16.1,76.1,8.1,93.5,7.8,94.2c-0.4,0.9-0.5,2-0.1,3l9.6,27.5c0.7,2.1,3,3.2,5.1,2.5c2.1-0.7,3.2-3,2.5-5.1l-9-25.8
			c2.3-4.3,10.4-18,27.3-31.4c1.1-0.8,2.2-1.7,3.3-2.6c3.8,2.9,9.3,3.3,13.6,0.6c24.2-15.1,54.3-22.6,89.5-22.3h3.7
			c0.5,0,1.1,0,1.6,0c34.6,0,64.3,7.6,88.1,22.5c2,1.2,4.2,1.8,6.4,1.8c2.4,0,4.8-0.8,6.9-2.2c0.9,0.7,1.8,1.4,2.7,2.1
			c16.9,13.5,25,27.2,27.3,31.4l-9.1,26.2c-0.7,2.1,0.4,4.4,2.5,5.1c0.4,0.2,0.9,0.2,1.3,0.2c1.7,0,3.2-1,3.8-2.7l9.7-27.8
			C294.7,96.2,294.6,95.2,294.2,94.3"/>
	</g>
	<path class="st1" d="M666,188H426c-5.5,0-10-4.5-10-10V10c0-5.5,4.5-10,10-10h240c5.5,0,10,4.5,10,10v168
		C676,183.5,671.5,188,666,188 M426,8c-1.1,0-2,0.9-2,2v168c0,1.1,0.9,2,2,2h240c1.1,0,2-0.9,2-2V10c0-1.1-0.9-2-2-2H426"/>
	<path class="st1" d="M654.4,36h-183c-2.2,0-4-1.8-4-4s1.8-4,4-4h183c2.2,0,4,1.8,4,4S656.6,36,654.4,36"/>
	<path class="st0" d="M654.4,83h-46c-2.2,0-4-1.8-4-4s1.8-4,4-4h46c2.2,0,4,1.8,4,4S656.6,83,654.4,83"/>
	<path class="st0" d="M654.4,111h-26c-2.2,0-4-1.8-4-4s1.8-4,4-4h26c2.2,0,4,1.8,4,4S656.6,111,654.4,111"/>
	<g>
		<path class="st1" d="M564.4,163.7c-0.1,0-0.3,0-0.4,0c-2.2-0.2-4.1-1.6-5-3.5l-17-40.1c-0.9-2.3-0.4-4.9,1.3-6.6
			c1.1-1.1,2.7-1.8,4.3-1.8c0.8,0,1.5,0.1,2.3,0.4l40,17c1.9,0.8,3.2,2.4,3.5,4.4c0.1,0.4,0.2,0.7,0.2,1.1c0,2.2-1.1,4.1-3,5.2
			l-5.8,3.5l5.7,5.7c2.3,2.3,2.3,6.2,0,8.5l-3.1,3.1c-1.1,1.1-2.7,1.8-4.2,1.8c-1.6,0-3.1-0.6-4.2-1.8l-5.7-5.7l-3.4,5.8
			C568.7,162.5,566.6,163.7,564.4,163.7"/>
		<path class="st1" d="M547.6,115.7c0.3,0,0.5,0,0.8,0.1l39.9,17c0.7,0.3,1.2,1,1.2,1.7c0.1,0.1,0.1,0.1,0.1,0.1
			c0,0.7-0.4,1.4-1,1.8l-10.3,6.2l9.3,9.3c0.7,0.7,0.7,2.1,0,2.8l-3.1,3.1c-0.4,0.4-0.9,0.6-1.4,0.6s-1-0.2-1.4-0.6l-9.3-9.3
			l-6.1,10.2c-0.4,0.7-1.1,1-1.8,1c-0.7-0.1-1.4-0.5-1.7-1.2l-17-40c-0.3-0.7-0.1-1.6,0.4-2.2C546.6,115.9,547.1,115.7,547.6,115.7
			 M547.6,107.7c-2.7,0-5.2,1-7.1,2.9c-2.8,2.8-3.7,7.1-2.2,10.8c0,0.1,0,0.1,0.1,0.2l17,40c0,0,0,0.1,0,0.1
			c1.5,3.3,4.6,5.5,8.2,5.9c0.3,0,0.5,0,0.8,0c3.6,0,7-1.9,8.8-5l0.8-1.3l2,2c1.9,1.9,4.4,2.9,7.1,2.9c2.6,0,5.2-1.1,7.1-2.9
			l3.1-3.1c1.8-1.8,2.9-4.4,2.9-7.1c0-2.6-1.1-5.2-2.9-7.1l-2-2l1.4-0.8c3.1-1.8,5-5.1,5-8.7c0-0.6-0.1-1.3-0.2-1.9
			c-0.6-3.2-2.8-6-5.9-7.3l-39.9-16.9c-0.1,0-0.1,0-0.2-0.1C550.2,107.9,548.9,107.7,547.6,107.7L547.6,107.7z"/>
	</g>
	<path class="st1" d="M530.7,104.8c-1,0-2-0.4-2.8-1.2l-12.7-12.7c-1.6-1.6-1.6-4.1,0-5.7c1.6-1.6,4.1-1.6,5.7,0L533.5,98
		c1.6,1.6,1.6,4.1,0,5.7C532.7,104.4,531.7,104.8,530.7,104.8"/>
	<path class="st0" d="M547,94.2c-2.2,0-4-1.8-4-4v-14c0-2.2,1.8-4,4-4s4,1.8,4,4v14C551,92.4,549.2,94.2,547,94.2"/>
	<path class="st0" d="M520,121.1h-14c-2.2,0-4-1.8-4-4s1.8-4,4-4h14c2.2,0,4,1.8,4,4S522.2,121.1,520,121.1"/>
	<path class="st1" d="M526,153h-70c-5.5,0-10-4.5-10-10V65c0-5.5,4.5-10,10-10h118c5.5,0,10,4.5,10,10v31.5c0,2.2-1.8,4-4,4
		s-4-1.8-4-4V65c0-1.1-0.9-2-2-2H456c-1.1,0-2,0.9-2,2v78c0,1.1,0.9,2,2,2h70c2.2,0,4,1.8,4,4S528.2,153,526,153"/>
</g>
<g>
	<g>
		<path class="st1" d="M213.4,187.8c0,0.8,0,1.5,0,2.3c-2.1,0.6-4.2,1.2-6.3,1.6c-3.7,0.7-7.4,1.2-11.1,1.6c-3,0.3-6,0.4-9,0.2
			c-3.7-0.2-7.4-0.6-11.1-1c-1.3-0.2-1.8,0.2-2,1.5c-0.3,2.1-0.5,4.1-0.8,6.2c-0.2,1.5-0.5,1.8-2,1.8c-2.6,0-5.2-0.1-7.9,0
			c-0.4,0-0.7,0-1.1,0c-1.4,0.1-2.4-0.3-3.4-1.3c-4.1-4.1-8.4-8.2-12.5-12.3c-5.4-5.5-10.9-10.8-16.3-16.2
			c-3.5-3.4-6.9-6.8-10.4-10.3c-0.3-0.3-0.7-0.5-1.2-0.5c-1.5,0-2.9,0-4.4,0c-0.5,0-0.6,0.2-0.6,0.6c0,2.3,0,4.5,0,6.8
			c0,0.5,0.1,0.7,0.7,0.7c2.2,0,4.5,0,6.7,0c0.7,0,0.7,0,0.7,0.7c0,5,0,9.9,0,14.9c0,0.6-0.2,0.7-0.7,0.7c-2.5,0-4.9,0-7.4,0
			c0-2.5,0-5,0-7.5c0-0.5-0.2-0.7-0.7-0.7c-2.3,0-4.6,0-6.9,0c-0.4,0-0.5,0.1-0.5,0.5c0,2.3,0,4.6,0,7c0,0.5,0.1,0.6,0.6,0.6
			c2.5,0,5,0,7.5,0c0,2.7,0,5.4,0,8.1c0,0,0,0.1,0,0.1c-0.2,0-0.4-0.1-0.6-0.1c-2.3,0-4.6,0-6.9,0c-0.5,0-0.7,0.1-0.6,0.6
			c0,2.3,0,4.6,0.1,6.9c0,0.4-0.1,0.5-0.5,0.5c-5.1,0-10.1,0-15.2,0c-0.4,0-0.6-0.1-0.6-0.5c0-5.1,0-10.1,0-15.2
			c0-0.4,0.1-0.5,0.5-0.5c2.5,0,5.1,0,7.6,0c0,2.5,0,4.9,0,7.4c0,0.5,0.1,0.7,0.7,0.7c2.3,0,4.6,0,6.9,0c0.5,0,0.6-0.2,0.6-0.6
			c0-2.3,0-4.6,0-6.9c0-0.5-0.1-0.6-0.6-0.6c-2.5,0-5,0-7.5,0c0-2.5,0-5.1,0-7.6c0-0.5-0.2-0.6-0.6-0.5c-2.3,0-4.7,0-7,0
			c-0.4,0-0.5-0.1-0.5-0.5c0-7.8,0-15.6,0-23.4c0-0.4,0.1-0.5,0.5-0.5c2.5,0,5.1,0,7.6,0c0,2.5,0,5,0,7.5c0,0.5,0.2,0.7,0.7,0.7
			c2.3,0,4.5,0,6.8,0c0.6,0,0.7-0.2,0.7-0.7c0-2.3,0-4.6,0-6.9c0-0.2,0-0.3-0.1-0.5c2.5,0,5,0,7.4,0c0.7,0,0.8,0,0.8-0.8
			c0-2.5,0-5,0-7.4c1.3,0,2.6,0,3.9,0c0.3,0,0.5-0.2,0.6-0.4c0.3-0.5,0.7-1,1-1.4c1.3-1.7,2.1-1.8,3.7-0.3c2.3,2.2,4.7,4.5,7,6.7
			c1.8,1.7,3.5,3.4,5.3,5.1c0.4,0.4,0.5,0.3,0.7-0.2c0.7-1.8,0.9-3.7,0.1-5.5c-1.8-4.2-4.6-7.5-8.8-9.5c-0.5-0.2-1-0.5-1.5-0.8
			c-0.9-0.6-1-1.3-0.5-2.3c0.9-1.7,3.1-2.3,4.8-1.3c3.7,2.3,6.6,5.3,8.7,9.1c2.6,4.6,3,9.4,0.9,14.3c-0.4,1-0.3,1.2,0.6,1.7
			c0.2,0.1,0.4,0.2,0.6,0.2c1.5,0.4,2.6-0.3,3.5-1.4c2.9-3.6,3.2-7.6,1.7-11.8c-0.9-2.5-2.4-4.7-4-6.8c-2.7-3.6-5.9-6.8-10.1-8.7
			c-0.9-0.4-1-1-0.6-1.9c0.8-1.7,2.8-2.4,4.6-1.7c1.8,0.8,3.4,2,4.9,3.3c1.9,1.6,3.4,3.6,5,5.5c3.2,3.7,5.4,7.9,6.1,12.8
			c0.4,2.9,0.3,5.8-1,8.5c-1.1,2.4-2.7,4.4-4.7,6.2c-0.2,0.2-0.5,0.4-0.4,0.7c0.3,1.6,2.2,2.4,3.6,1.6c2.2-1.4,4-3.2,5.2-5.6
			c2.1-4.2,2.4-8.6,1.2-13.1c-1.6-6.1-4.9-11.2-9.2-15.7c-3-3-6.4-5.5-10.1-7.6c-0.9-0.5-1-0.9-0.3-1.7c2.7-3.2,5.4-6.6,8.2-9.7
			c1.7-1.9,3.3-3.9,5.1-5.7c4-4.1,9.1-4,13.5-0.6c1.5,1.2,1.6,2.4,0.3,3.8c-0.6,0.7-1.4,1.3-2.1,2c-3.7,3.3-6.2,7.2-7.3,12.1
			c-0.5,2.4-0.2,4.6,1.3,6.6c1,1.4,2,2.9,3,4.3c1.4,1.9,2.8,3.9,4.5,5.5c0.8,0.7,1.6,1,2.6,1c1.6-0.1,3.2-0.5,4.6-1.3
			c1.9-1,3.3-2.5,4.5-4.4c0.5-0.8,0.8-0.8,1.4-0.1c0.4,0.4,0.7,1,0.9,1.5c2.9,6,3.9,12.4,2.9,19c-0.5,3.4-2.4,5.7-5.5,7.1
			c-0.9,0.4-1.9,0.7-2.8,1.1c-0.3,0.1-0.7,0.2-0.7,0.6c0,0.4,0.2,0.7,0.6,0.9c1.1,0.7,2.3,0.8,3.5,0.2c1.7-0.8,3.4-1.6,4.9-2.8
			c0.6-0.5,1-0.5,1.5,0.1c0.3,0.3,0.5,0.6,0.8,0.9c0.9,1.2,0.9,2.5,0,3.6c-1.3,1.6-3,2.8-5,3.4c-0.3,0.1-0.7,0.2-1,0.4
			c-0.3,0.1-0.4,0.3-0.1,0.6c0.8,0.5,1.6,1,2.6,0.8c1.7-0.3,3.1-1.1,4.2-2.3c0.5-0.6,1-1.1,1.5-1.6c0.3-0.3,0.6-0.4,1-0.2
			c1.6,0.7,2.5,3,1.6,4.6c-0.3,0.6-0.7,1.1-1.1,1.6c-0.7,0.8-1.5,1.5-2.5,1.8c-0.3,0.1-0.6,0.2-0.9,0.2c-0.2,0.1-0.5,0.1-0.6,0.4
			c0,0.3,0.2,0.4,0.4,0.6c0.8,0.6,1.6,0.7,2.5,0.4c1.8-0.8,3.3-2,4.1-3.9c0.4-1.1,0.8-1.2,1.9-0.9c0.4,0.1,0.7,0.2,1.1,0.4
			c1.1,0.5,2.2,1,3.4,1.4c4.6,1.9,9.2,3.4,13.9,5.1c2.3,0.8,3.9,2.4,4.5,4.8C213.1,186.6,213.3,187.2,213.4,187.8z M101.1,177.6
			c1.2,0,2.4,0,3.6,0c0.4,0,0.5-0.1,0.5-0.5c0-2.3,0-4.6,0-6.9c0-0.5-0.1-0.7-0.6-0.7c-2.3,0-4.6,0-6.9,0c-0.5,0-0.6,0.2-0.6,0.6
			c0,2.3,0,4.6,0,6.9c0,0.4,0.1,0.5,0.5,0.5C98.8,177.6,99.9,177.6,101.1,177.6z"/>
		<path class="st2" d="M213.4,193.1c-0.3,0.8-0.3,1.7-0.7,2.5c-0.2,0.6-0.4,1.2-0.7,1.7c-0.8,1.7-2.2,2.6-4,2.9c-3,0.6-6,0.9-9,1.1
			c-4.4,0.4-8.7,0.3-13.1,0.3c-3.3,0-6.6,0.1-9.9,0.1c-0.2,0-0.5,0-0.7,0c-0.6-0.1-0.9-0.4-0.8-1c0.1-1.9,0.3-3.9,0.8-5.8
			c0.2-0.8,0.3-0.9,1.1-0.8c3.9,0.3,7.9,0.5,11.8,0.7c8.3,0.3,16.5-0.7,24.6-3c0.2-0.1,0.4-0.1,0.6-0.1
			C213.4,192.3,213.4,192.7,213.4,193.1z"/>
		<path class="st3" d="M113.4,104.4c0,0,0-0.1,0-0.1c2.7,0,5.4,0,8.1,0c0,0,0,0.1,0,0.1C118.8,104.4,116.1,104.4,113.4,104.4z"/>
		<path class="st4" d="M113.4,193.8c2.5,0,5,0,7.5,0c0.4,0,0.6,0.1,0.6,0.6c0,2.4,0,4.7,0,7.1c0,0.4-0.1,0.5-0.5,0.5
			c-2.4,0-4.8,0-7.2,0c-0.3,0-0.5,0-0.5-0.4C113.4,199,113.4,196.5,113.4,193.8C113.4,193.9,113.4,193.9,113.4,193.8z"/>
		<path class="st5" d="M105.2,153.2c-2.7,0-5.4,0-8.1,0c0-2.5,0-5,0-7.5c0-0.5-0.2-0.7-0.7-0.6c-2.3,0-4.6,0-6.9,0
			c-0.4,0-0.6-0.1-0.6-0.6c0-2.4,0-4.7,0-7.1c0-0.4,0.1-0.5,0.5-0.5c2.3,0,4.6,0,6.8,0c0.8,0,0.8,0,0.8-0.8c0-2.4,0-4.9,0-7.3
			c0,0,0,0,0,0c2.7,0,5.4,0,8.2,0l0,0c0,2.5,0.1,4.9,0,7.4c0,0.5,0.1,0.7,0.7,0.7c2.5,0,5,0,7.5,0l0,0c0,2.7,0,5.4,0,8.1
			c-0.2,0.1-0.4,0-0.6,0c-2.3,0-4.6,0-6.9,0c-0.6,0-0.8,0.2-0.7,0.8c0.1,2.3,0,4.7,0,7C105.2,153,105.3,153.1,105.2,153.2z"/>
		<path class="st4" d="M105.2,128.8C105.2,128.8,105.2,128.8,105.2,128.8c0-2.7,0-5.4,0-8.1c0,0,0,0,0-0.1c2.4,0,4.9,0,7.3,0
			c0.7,0,0.7-0.1,0.7-0.8c0-4.9,0-9.9,0-14.8c0-0.2,0-0.5,0-0.7c2.7,0,5.4,0,8.1,0c0,0.2,0,0.4,0,0.6c0,10.3,0,20.7,0,31
			c0,0.9,0,0.9-0.9,0.9c-2.4,0-4.8,0-7.2,0c0,0,0,0,0,0c0-2.4,0-4.9,0-7.3c0-0.8,0-0.8-0.8-0.8C110.1,128.8,107.7,128.8,105.2,128.8
			z"/>
		<path class="st6" d="M105.3,120.6C105.2,120.7,105.2,120.7,105.3,120.6c-0.3,0-0.5,0-0.7,0c-2.5,0-5,0-7.5,0l0,0
			c0-2.4,0-4.8,0-7.2c0-0.9,0-0.9-0.9-0.9c-2.2,0-4.5,0-6.7,0c-0.4,0-0.5-0.1-0.5-0.5c0-2.3,0-4.7,0-7c0-0.5,0.2-0.6,0.6-0.6
			c5,0,10.1,0,15.1,0c0.5,0,0.6,0.1,0.6,0.6c0,5,0,10,0,15C105.2,120.2,105.2,120.4,105.3,120.6z"/>
		<path class="st4" d="M97.1,120.7C97.1,120.7,97.1,120.7,97.1,120.7c0,2.7,0,5.4,0,8.2c0,0,0,0,0,0c-2.5,0-5.1,0-7.6,0
			c-0.4,0-0.5-0.1-0.5-0.5c0-2.4,0-4.7,0-7.1c0-0.4,0.1-0.5,0.6-0.5C92,120.7,94.5,120.7,97.1,120.7z"/>
	</g>
</g>
<rect x="446" y="28" class="st7" width="16.8" height="9.2"/>
<text transform="matrix(1 0 0 1 446 36.9413)" class="st1 st8 st9">K</text>
</svg>
