<svg height='300px' width='300px'  fill="#000000" xmlns="http://www.w3.org/2000/svg" xmlns:xlink="http://www.w3.org/1999/xlink" version="1.1" x="0px" y="0px" viewBox="0 0 98.158 61.479" style="enable-background:new 0 0 98.158 61.479;" xml:space="preserve"><g><g><path d="M96.714,44.225c-0.723-1.554-3.715-4.666-15.804-7.242l-16.517-7.536c-0.129-0.059-0.266-0.099-0.406-0.12l-4.416-0.645    c-0.296-0.044-0.586,0.006-0.841,0.124c-2.059-1.764-4.196-1.288-5.19-1.053c-0.121-0.34-0.255-0.879-0.352-1.271    c-0.279-1.125-0.544-2.188-1.127-2.772c-0.5-0.501-1.172-0.53-1.959-0.308c-0.074-0.113-0.159-0.221-0.266-0.313l-3.153-2.731    c0.008-0.525-0.019-0.988-0.11-1.349c-0.232-0.932-0.771-1.41-1.181-1.646c-0.265-0.153-0.538-0.241-0.8-0.291l0.567-0.746    c0.084-0.111,0.153-0.234,0.203-0.364c0.412-1.058,0.207-2.249-0.535-3.107c-0.3-0.348-0.666-0.616-1.07-0.796    c-0.029-0.226-0.11-0.445-0.239-0.639l-7.166-10.75c-0.434-0.65-1.292-0.858-1.977-0.479c-3.273,1.818-3.506,5.451-3.321,7.591    L20.406,4.807c-2.699-0.753-5.505,0.744-6.377,3.415l-3.837,11.771c-0.485-0.225-1.059-0.176-1.502,0.141l-1.75,1.25    c-0.324,0.232-0.543,0.583-0.607,0.976L3.874,37.235c-4.395,8.148-3.379,12.776-2.57,14.612l-1.136,2.191    c-0.209,0.403-0.224,0.88-0.041,1.295c0.111,0.251,2.807,6.146,11.436,6.146h16.125c0.232,0,0.463-0.055,0.671-0.158l9.085-4.543    l4.181-0.16l9.039,4.339c0.203,0.097,0.425,0.147,0.649,0.147h24.75c0.058,0,0.116-0.003,0.174-0.01    c1.783-0.208,17.513-2.204,20.54-8.188C99.395,47.728,97.658,45.144,96.714,44.225z M46.372,24.055l0.819,0.71c0,0,0,0,0,0    c-0.284,0.156-0.619,0.34-0.91,0.494C46.296,24.904,46.331,24.477,46.372,24.055z M42.494,14.873l-0.55,0.723l-0.174-0.743    l0.47-0.023C42.314,14.837,42.409,14.864,42.494,14.873z M34.797,3.742l4.309,6.465c-0.539-0.363-1.138-0.649-1.793-0.815    L34.2,8.601C34.081,8.045,33.61,5.42,34.797,3.742z M6.792,37.973l0.167-1.008c-0.01,0.49,0.099,0.983,0.334,1.428    c1.069,2.021,4.097,6.832,9.096,7.871c0.177,0.036,0.354,0.054,0.529,0.054c0.652,0,1.282-0.246,1.754-0.7l0.573-0.55    c0.479-0.462,0.753-1.081,0.766-1.661l1.022-9.106l0.665-0.562c0.443-0.013,2.148,0.164,5.703,3.042l10.633,7.946    c0.938,0.702,2.246,0.7,3.181-0.006l13.199-9.942c0.231-0.174,0.376-0.44,0.396-0.729c0.021-0.289-0.085-0.572-0.29-0.777    c-0.144-0.143-3.64-3.5-14.672-2.98l-13.381-0.465l-0.99-1.128l8.937-7.781c0.905-0.789,1.113-2.109,0.495-3.137l-1.209-2.01    c-0.357-0.594-0.951-1.014-1.631-1.15L20.92,12.381c-0.995-0.202-2.015,0.248-2.541,1.112l-3.56,5.834    c-0.446,0.73-0.47,1.651-0.062,2.404l3.749,6.909c-0.381,0.784-0.85,1.521-1.104,1.725c-1.218,0.154-5.677,1.761-8.312,2.738    c-0.211,0.078-0.39,0.225-0.507,0.417l-1.205,1.98c-0.124,0.204-0.215,0.422-0.284,0.646l2.097-12.685l0.384-0.274l0.569,0.396    c0.39,0.271,0.883,0.341,1.334,0.19c0.45-0.151,0.802-0.506,0.948-0.957l4.455-13.667c0.371-1.138,1.567-1.776,2.719-1.456    l11.594,3.236l5.382,1.367c0.993,0.252,1.755,1.029,1.989,2.026l1.269,5.409c0.16,0.684-0.138,1.384-0.741,1.743l-1.32,0.786    c-0.025,0.014-0.051,0.029-0.076,0.045l-4.525,2.693c-0.508,0.303-0.791,0.876-0.723,1.464c0.069,0.588,0.478,1.08,1.043,1.256    l6,1.875c0.53,0.167,1.114,0.024,1.508-0.371c0.395-0.395,0.538-0.976,0.371-1.508l-1.082-3.461l0.34-0.202    c1.167-0.695,1.923-1.837,2.159-3.106l1.738,1.506c-0.016,0.15-0.031,0.299-0.046,0.443c-0.257,2.435-0.354,3.634,0.229,4.282    c0.233,0.259,0.552,0.402,0.896,0.402c0.581,0,1.273-0.365,2.548-1.064c0.725-0.397,2.007-1.101,2.595-1.229    c0.179,0.378,0.374,1.168,0.5,1.673c0.366,1.476,0.712,2.87,1.94,2.87c0.242,0,0.479-0.056,0.78-0.126    c1.268-0.297,3.384-0.796,5.231,3.135c0.137,0.291,0.404,0.498,0.72,0.557l10.074,1.901l9.821,4.481    c0.101,0.046,0.205,0.081,0.313,0.104c2.392,0.505,4.371,1.022,6.015,1.527C85.665,41.897,84.854,42,84.854,42l-25.553,0.661    c-0.302,0.008-0.322,0.45-0.022,0.484l18.262,2.688c10.546,1.554,13.948-0.258,15.046-1.643c1.021,0.688,1.331,1.168,1.394,1.282    c0.086,0.369,0.283,0.669,0.618,0.874c0.157,0.118,0.311,0.355,0.419,0.691c-1.983,1.504-12.46,2.066-18.643,2.066    c-10.854,0-25.099-5.864-25.241-5.924c-0.285-0.118-0.609-0.098-0.878,0.055s-0.452,0.421-0.496,0.727    c-0.223,1.555-0.834,2.686-1.816,3.363c-1.771,1.222-4.258,0.687-4.281,0.68c-0.073-0.017-0.149-0.025-0.225-0.025    c-3.893,0-12.574-6.859-15.591-9.502c-0.265-0.231-0.631-0.307-0.961-0.201l-3.75,1.188c-0.491,0.155-0.784,0.659-0.676,1.163    c0.375,1.752,0.541,4.139-0.802,5.557c-1.298,1.37-3.841,1.772-7.565,1.183c-3.268-0.515-5.521-1.684-6.7-3.474    c-1.362-2.07-0.814-4.353-0.801-4.409c0.071-0.268,0.025-0.539-0.105-0.76c0.05-0.094,0.09-0.179,0.141-0.274    C6.709,38.301,6.765,38.14,6.792,37.973z M20.504,28.127l-3.988-7.349c-0.069-0.128-0.065-0.285,0.011-0.409l3.56-5.834    c0.092-0.149,0.264-0.227,0.44-0.193l11.148,2.239c0.13,0.026,0.243,0.106,0.311,0.219l1.21,2.011    c0.117,0.196,0.078,0.448-0.095,0.598l-9.694,8.439c-0.201,0.175-0.323,0.422-0.342,0.688c-0.018,0.265,0.071,0.527,0.246,0.727    l1.938,2.208c0.183,0.207,0.441,0.33,0.717,0.34l13.894,0.479c6.958-0.323,10.612,0.932,12.215,1.747l-12.062,9.086    c-0.229,0.171-0.55,0.173-0.778,0.001L28.63,35.201c-5.025-4.071-7.236-3.56-7.795-3.305c-0.084,0.038-0.161,0.087-0.231,0.146    l-1.166,0.987c-0.194,0.165-0.318,0.398-0.348,0.651l-1.073,9.586c-0.003,0.137-0.06,0.264-0.157,0.357l-0.573,0.55    c-0.125,0.12-0.311,0.17-0.491,0.13c-4.167-0.865-6.797-5.077-7.734-6.848c-0.154-0.292-0.145-0.636,0.026-0.917l1.023-1.682    c3.273-1.207,6.887-2.447,7.452-2.505c1.017,0,2.02-1.128,2.98-3.354C20.665,28.719,20.651,28.397,20.504,28.127z M37.651,25.88    l-0.06-0.019l0.045-0.027L37.651,25.88z M3.208,54.694l0.596-1.151c2.121,1.278,6.57,3.596,12.846,4.936h-5.088    C6.36,58.479,4.009,55.877,3.208,54.694z M41.88,53.605l-4.875,0.188c-0.213,0.009-0.422,0.062-0.613,0.157l-6.903,3.451    C16.537,58.254,7.264,53.314,4.47,51.598c-0.038-0.236-0.121-0.466-0.27-0.665c-0.021-0.027-1.572-2.567,0.506-8.289    c0.182,0.743,0.487,1.535,0.995,2.315c1.496,2.299,4.215,3.773,8.081,4.383c4.412,0.694,7.55,0.095,9.329-1.784    c1.41-1.49,1.903-3.659,1.47-6.455l2.375-0.752c2.295,1.968,11.413,9.517,16.374,9.627c0.616,0.119,3.463,0.559,5.733-0.997    c1.173-0.803,1.982-1.979,2.418-3.509c3.636,1.411,15.313,5.632,24.894,5.632c2.5,0,14.004-0.099,18.595-1.829    c-0.159,0.647-0.425,1.396-0.871,2.277c-0.024,0.048-0.067,0.093-0.094,0.141c-0.204-0.028-0.415-0.01-0.608,0.096    c-6.554,3.574-14.519,1.562-15.747,1.217c-3.248-2.465-6.843-2.436-10.433,0.107c-4.245,3.182-16.953,3.697-18.173,3.738    l-6.457-3.099C42.366,53.646,42.123,53.592,41.88,53.605z M75.975,58.104H57.53c4.043-0.58,8.493-1.597,10.864-3.375    c2.908-2.06,5.581-2.071,8.175-0.03c0.095,0.074,0.202,0.131,0.317,0.168c0.267,0.084,4.697,1.445,9.986,0.908    C83.281,56.927,79.094,57.734,75.975,58.104z"></path></g></g></svg>