<svg height='300px' width='300px' fill="#1b1b1b" xmlns="http://www.w3.org/2000/svg" viewBox="0 0 512 512" enable-background="new 0 0 512 512">
    <g>
        <path d="M507,248.8L437.2,179c-1.9-1.9-3-4.5-3-7.2V87.9c0-5.6-4.6-10.2-10.2-10.2h-83.9c-2.7,0-5.3-1.1-7.2-3L263.2,5   c-4-4-10.4-4-14.4,0L179,74.8c-1.9,1.9-4.5,3-7.2,3H87.9c-5.6,0-10.2,4.6-10.2,10.2v83.9c0,2.7-1.1,5.3-3,7.2L5,248.8   c-4,4-4,10.4,0,14.4L74.8,333c1.9,1.9,3,4.5,3,7.2v83.9c0,5.6,4.6,10.2,10.2,10.2h83.9c2.7,0,5.3,1.1,7.2,3l69.8,69.8   c4,4,10.4,4,14.4,0l69.8-69.8c1.9-1.9,4.5-3,7.2-3h83.9c5.6,0,10.2-4.6,10.2-10.2v-83.9c0-2.7,1.1-5.3,3-7.2l69.8-69.8   C511,259.2,511,252.8,507,248.8z M258.1,408.4c-84,0-152.4-68.4-152.4-152.4c0-84,68.4-152.4,152.4-152.4S410.5,172,410.5,256   C410.5,340,342.1,408.4,258.1,408.4z"/>
        <circle xmlns="http://www.w3.org/2000/svg" cx="50%" cy="50%" r="155" fill="white"/>
        <circle xmlns="http://www.w3.org/2000/svg" cx="150%" cy="0" r="210" fill="white"/>
    </g>
</svg>