<svg xmlns="http://www.w3.org/2000/svg" viewBox="0 0 24 24">
    <g>
        <path d="M12 2c2.757 0 5 2.243 5 5.001 0 2.756-2.243 5-5 5s-5-2.244-5-5c0-2.758 2.243-5.001 5-5.001zm0-2c-3.866 0-7 3.134-7 7.001 0 3.865 3.134 7 7 7s7-3.135 7-7c0-3.867-3.134-7.001-7-7.001zm6.369 13.353c-.497.498-1.057.931-1.658 1.302 2.872 1.874 4.378 5.083 4.972 7.346h-19.387c.572-2.29 2.058-5.503 4.973-7.358-.603-.374-1.162-.811-1.658-1.312-4.258 3.072-5.611 8.506-5.611 10.669h24c0-2.142-1.44-7.557-5.631-10.647z"/>
    </g>
    <g>
        <path d="M19 7.001c0 3.865-3.134 7-7 7s-7-3.135-7-7c0-3.867 3.134-7.001 7-7.001s7 3.134 7 7.001zm-1.598 7.18c-1.506 1.137-3.374 1.82-5.402 1.82-2.03 0-3.899-.685-5.407-1.822-4.072 1.793-6.593 7.376-6.593 9.821h24c0-2.423-2.6-8.006-6.598-9.819z"/>
    </g>
</svg>