<svg  xmlns="http://www.w3.org/2000/svg" xmlns:xlink="http://www.w3.org/1999/xlink" xml:space="preserve" version="1.1" style="shape-rendering:geometricPrecision;text-rendering:geometricPrecision;image-rendering:optimizeQuality;" viewBox="0 0 846.66 846.66" x="0px" y="0px" fill-rule="evenodd" clip-rule="evenodd"><g><path class="fil0" d="M775.54 809.74l-704.43 0 0 -465.72 77.28 -55.76 0 -251.33 549.89 0 0 250.57c25.79,18.8 51.55,37.62 77.26,56.52l0 465.72zm-371.08 -511.22l81.98 -90.85c18.41,-20.41 49.61,7.7 31.18,28.11l-96.12 106.54c-7.83,9.66 -22.32,10.35 -31.12,1.57l-60.61 -60.6c-19.46,-19.48 10.27,-49.21 29.74,-29.74l44.95 44.97zm135.97 -65.98c-9.43,-25.93 29.98,-40.24 39.42,-14.32 6.69,18.36 10.12,37.62 10.12,57.17 0,92.01 -74.61,166.62 -166.64,166.62 -92.02,0 -166.63,-74.61 -166.63,-166.62 0,-92.05 74.6,-166.65 166.63,-166.65 31.41,0 62.6,9.02 89.14,25.83 23.19,14.73 0.71,50.21 -22.51,35.49 -20.16,-12.79 -42.77,-19.27 -66.63,-19.27 -68.81,0 -124.59,55.77 -124.59,124.6 0,68.78 55.78,124.56 124.59,124.56 68.82,0 124.6,-55.78 124.6,-124.56 0,-14.57 -2.52,-29.18 -7.5,-42.85zm-344.09 200.66l113.05 130.06 113.95 -101.26 113.94 101.28 113.05 -130.08 0 -348.31 -453.99 0 0 348.31zm531.25 -16.03l-154.58 177.86 154.58 137.39 0 -315.25zm-453.93 177.86l-154.59 -177.86 0 315.25 154.59 -137.39zm414.88 166.76l-265.21 -235.72 -265.2 235.72 530.41 0z"></path></g></svg>