<svg height='300px' width='300px'  fill="#000000" xmlns="http://www.w3.org/2000/svg" xmlns:xlink="http://www.w3.org/1999/xlink" version="1.1" x="0px" y="0px" viewBox="0 0 1024 1024" style="enable-background:new 0 0 1024 1024;" xml:space="preserve"><g><g><g><path d="M677.5,220.8c11.4,11.4,22,23.5,31.8,36.2c-2.6-3.4-5.2-6.7-7.8-10.1c19.6,25.5,35.9,53.4,48.4,83     c-1.7-4-3.4-8-5-11.9c12.6,30.3,21.3,62,25.7,94.5c-0.6-4.4-1.2-8.9-1.8-13.3c4.4,33.2,4.4,66.8,0,100c0.6-4.4,1.2-8.9,1.8-13.3     c-4.4,32.5-13.1,64.3-25.7,94.5c1.7-4,3.4-8,5-11.9c-12.5,29.6-28.8,57.5-48.4,83c2.6-3.4,5.2-6.7,7.8-10.1     c-19.7,25.4-42.6,48.3-68,68c3.4-2.6,6.7-5.2,10.1-7.8c-25.5,19.6-53.4,35.9-83,48.4c4-1.7,8-3.4,11.9-5     c-30.3,12.6-62,21.3-94.5,25.7c4.4-0.6,8.9-1.2,13.3-1.8c-33.2,4.4-66.8,4.4-100,0c4.4,0.6,8.9,1.2,13.3,1.8     c-32.5-4.4-64.3-13.1-94.5-25.7c4,1.7,8,3.4,11.9,5c-29.6-12.5-57.5-28.8-83-48.4c3.4,2.6,6.7,5.2,10.1,7.8     c-25.4-19.7-48.3-42.6-68-68c2.6,3.4,5.2,6.7,7.8,10.1c-19.6-25.5-35.9-53.4-48.4-83c1.7,4,3.4,8,5,11.9     c-12.6-30.3-21.3-62-25.7-94.5c0.6,4.4,1.2,8.9,1.8,13.3c-4.4-33.2-4.4-66.8,0-100c-0.6,4.4-1.2,8.9-1.8,13.3     c4.4-32.5,13.1-64.3,25.7-94.5c-1.7,4-3.4,8-5,11.9c12.5-29.6,28.8-57.5,48.4-83c-2.6,3.4-5.2,6.7-7.8,10.1     c19.7-25.4,42.6-48.3,68-68c-3.4,2.6-6.7,5.2-10.1,7.8c25.5-19.6,53.4-35.9,83-48.4c-4,1.7-8,3.4-11.9,5     c30.3-12.6,62-21.3,94.5-25.7c-4.4,0.6-8.9,1.2-13.3,1.8c33.2-4.4,66.8-4.4,100,0c-4.4-0.6-8.9-1.2-13.3-1.8     c32.5,4.4,64.3,13.1,94.5,25.7c-4-1.7-8-3.4-11.9-5c29.6,12.5,57.5,28.8,83,48.4c-3.4-2.6-6.7-5.2-10.1-7.8     C654,198.8,666.1,209.4,677.5,220.8c9.1,9.1,22.5,14.6,35.4,14.6c12.3,0,26.9-5.4,35.4-14.6c8.7-9.5,15.2-22,14.6-35.4     c-0.6-13.2-5.1-25.8-14.6-35.4c-60.4-60.2-139.8-103-224.2-117c-41.5-6.9-83.1-9-124.9-3.5c-22.8,3-45.2,6.8-67.2,13.1     c-22.4,6.5-44.2,15.2-65.3,25c-38.8,18-74.5,43.1-105.9,72.1c-32,29.6-59.7,64.9-80.9,102.9c-40.6,73.1-60,159.3-51.9,242.7     c4.3,44.3,14.3,86.5,31.6,127.4c17.6,41.7,41.1,79.2,70.6,113.7c55.6,65.1,133.4,112.5,216.5,132.9c40.6,10,83.4,14.4,125.2,11.9     c41.6-2.5,83.2-10.3,122.2-25c21.9-8.3,43.5-17.8,63.9-29.4c20.4-11.5,39.1-25.2,57.5-39.7c34.4-27.2,63.7-60.6,87.9-97.1     c46.5-70.1,70.7-156.1,68.7-240.1c-2-84.1-28.9-168.9-78.9-236.9c-13.8-18.7-28.4-36.7-44.9-53.2c-9-9.1-22.6-14.6-35.4-14.6     c-12.3,0-26.9,5.4-35.4,14.6c-8.7,9.5-15.2,22-14.6,35.4C663.4,198.7,667.9,211.2,677.5,220.8z"></path></g></g><g><g><path d="M983.2,912.5c-26.5-26.5-53.1-53.1-79.6-79.6c-42.2-42.2-84.4-84.4-126.6-126.6     c-9.6-9.6-19.2-19.2-28.7-28.7c-9.1-9.1-22.5-14.6-35.4-14.6c-12.3,0-26.9,5.4-35.4,14.6c-8.7,9.5-15.2,22-14.6,35.4     c0.6,13.3,5.1,25.8,14.6,35.4c26.5,26.5,53.1,53.1,79.6,79.6c42.2,42.2,84.4,84.4,126.6,126.6c9.6,9.6,19.2,19.2,28.7,28.7     c9.1,9.1,22.5,14.6,35.4,14.6c12.3,0,26.9-5.4,35.4-14.6c8.7-9.5,15.2-22,14.6-35.4C997.2,934.5,992.7,922,983.2,912.5     L983.2,912.5z"></path></g></g><g><g><g><path d="M499.1,532.7c0-9.8-0.7-20,0.4-29.8c-0.6,4.4-1.2,8.9-1.8,13.3c0.7-5.2,2-10.1,4-15c-1.7,4-3.4,8-5,11.9      c2-4.7,4.6-9.1,7.7-13.2c-2.6,3.4-5.2,6.7-7.8,10.1c3.2-4.1,6.8-7.6,10.9-10.8c-3.4,2.6-6.7,5.2-10.1,7.8      c3.8-2.9,7.9-5.2,12.3-7.2c-4,1.7-8,3.4-11.9,5c10.9-4.6,22-8.5,32.1-14.6c9.9-6,19.2-13.2,27.7-21.1      c13.7-12.7,25.6-28.8,33.1-45.9c9.8-22.3,16-45.1,15.6-69.8c-0.4-23.6-6.2-44.6-15.6-66c-3-6.8-6.6-13.3-10.9-19.3      c-6.4-9-13.3-18.1-21.4-25.8c-16.8-15.9-35.2-26.4-56.6-34.7c-17.9-7-38.3-9.9-57.4-9c-25.7,1.2-50.7,7.9-73.1,20.7      c-48.5,27.6-78.5,80.7-78.9,136.2c-0.1,12.8,5.6,26.4,14.6,35.4c8.7,8.7,22.9,15.2,35.4,14.6c27.3-1.2,49.8-22,50-50      c0-5,0.4-9.9,1-14.8c-0.6,4.4-1.2,8.9-1.8,13.3c1.3-9,3.7-17.7,7.1-26.1c-1.7,4-3.4,8-5,11.9c3.7-8.7,8.3-16.7,14-24.3      c-2.6,3.4-5.2,6.7-7.8,10.1c5.8-7.4,12.3-13.9,19.7-19.7c-3.4,2.6-6.7,5.2-10.1,7.8c7.5-5.7,15.6-10.4,24.3-14      c-4,1.7-8,3.4-11.9,5c8.4-3.4,17.1-5.8,26.1-7.1c-4.4,0.6-8.9,1.2-13.3,1.8c10-1.3,20-1.3,30,0c-4.4-0.6-8.9-1.2-13.3-1.8      c9.3,1.4,18.3,3.9,27,7.5c-4-1.7-8-3.4-11.9-5c8.4,3.7,16.3,8.3,23.6,13.9c-3.4-2.6-6.7-5.2-10.1-7.8      c7.2,5.6,13.6,12.1,19.2,19.3c-2.6-3.4-5.2-6.7-7.8-10.1c5.6,7.3,10.1,15.2,13.7,23.7c-1.7-4-3.4-8-5-11.9      c3.6,8.7,6,17.8,7.3,27.1c-0.6-4.4-1.2-8.9-1.8-13.3c1.2,9.5,1.2,18.9,0.1,28.4c0.6-4.4,1.2-8.9,1.8-13.3      c-1.3,9.4-3.7,18.5-7.3,27.3c1.7-4,3.4-8,5-11.9c-3.6,8.5-8.3,16.5-13.8,23.9c2.6-3.4,5.2-6.7,7.8-10.1      c-5.7,7.3-12.1,13.8-19.3,19.4c3.4-2.6,6.7-5.2,10.1-7.8c-7.4,5.6-15.3,10.3-23.8,14c4-1.7,8-3.4,11.9-5      c-8.6,3.6-17.5,6.5-25.5,11.3c-7.8,4.7-15.3,10.5-21.7,17c-12.8,13.1-22.4,29.5-27.4,47.2c-4.7,16.8-3.9,34.2-3.9,51.4      c0,12.8,5.6,26.3,14.6,35.4c8.7,8.7,22.9,15.2,35.4,14.6c12.9-0.6,26.3-4.8,35.4-14.6C493.5,558.3,499.1,546.3,499.1,532.7      L499.1,532.7z"></path></g></g><g><g><path d="M449.1,699.7c12.8,0,26.3-5.6,35.4-14.6c8.7-8.7,15.2-22.9,14.6-35.4c-0.6-12.9-4.8-26.3-14.6-35.4      c-9.8-9-21.8-14.6-35.4-14.6c-12.8,0-26.3,5.6-35.4,14.6c-8.7,8.7-15.2,22.9-14.6,35.4c0.6,12.9,4.8,26.3,14.6,35.4      C423.6,694,435.6,699.7,449.1,699.7L449.1,699.7z"></path></g></g></g></g></svg>