<svg viewBox="0 0 1413.8839111328125 997.3547973632812" version="1.1" xmlns="http://www.w3.org/2000/svg" width="1413.8839111328125px" height="997.3547973632812px"><g transform="matrix(14.40416547325402, 0, 0, 14.40416547325402, 0.000012666797374549787, 55.90055729686395)"><g><g><path d="M96.714,44.225c-0.723-1.554-3.715-4.666-15.804-7.242l-16.517-7.536c-0.129-0.059-0.266-0.099-0.406-0.12l-4.416-0.645    c-0.296-0.044-0.586,0.006-0.841,0.124c-2.059-1.764-4.196-1.288-5.19-1.053c-0.121-0.34-0.255-0.879-0.352-1.271    c-0.279-1.125-0.544-2.188-1.127-2.772c-0.5-0.501-1.172-0.53-1.959-0.308c-0.074-0.113-0.159-0.221-0.266-0.313l-3.153-2.731    c0.008-0.525-0.019-0.988-0.11-1.349c-0.232-0.932-0.771-1.41-1.181-1.646c-0.265-0.153-0.538-0.241-0.8-0.291l0.567-0.746    c0.084-0.111,0.153-0.234,0.203-0.364c0.412-1.058,0.207-2.249-0.535-3.107c-0.3-0.348-0.666-0.616-1.07-0.796    c-0.029-0.226-0.11-0.445-0.239-0.639l-7.166-10.75c-0.434-0.65-1.292-0.858-1.977-0.479c-3.273,1.818-3.506,5.451-3.321,7.591    L20.406,4.807c-2.699-0.753-5.505,0.744-6.377,3.415l-3.837,11.771c-0.485-0.225-1.059-0.176-1.502,0.141l-1.75,1.25    c-0.324,0.232-0.543,0.583-0.607,0.976L3.874,37.235c-4.395,8.148-3.379,12.776-2.57,14.612l-1.136,2.191    c-0.209,0.403-0.224,0.88-0.041,1.295c0.111,0.251,2.807,6.146,11.436,6.146h16.125c0.232,0,0.463-0.055,0.671-0.158l9.085-4.543    l4.181-0.16l9.039,4.339c0.203,0.097,0.425,0.147,0.649,0.147h24.75c0.058,0,0.116-0.003,0.174-0.01    c1.783-0.208,17.513-2.204,20.54-8.188C99.395,47.728,97.658,45.144,96.714,44.225z M46.372,24.055l0.819,0.71c0,0,0,0,0,0    c-0.284,0.156-0.619,0.34-0.91,0.494C46.296,24.904,46.331,24.477,46.372,24.055z M42.494,14.873l-0.55,0.723l-0.174-0.743    l0.47-0.023C42.314,14.837,42.409,14.864,42.494,14.873z M34.797,3.742l4.309,6.465c-0.539-0.363-1.138-0.649-1.793-0.815    L34.2,8.601C34.081,8.045,33.61,5.42,34.797,3.742z M6.792,37.973l0.167-1.008c-0.01,0.49,0.099,0.983,0.334,1.428    c1.069,2.021,4.097,6.832,9.096,7.871c0.177,0.036,0.354,0.054,0.529,0.054c0.652,0,1.282-0.246,1.754-0.7l0.573-0.55    c0.479-0.462,0.753-1.081,0.766-1.661l1.022-9.106l0.665-0.562c0.443-0.013,2.148,0.164,5.703,3.042l10.633,7.946    c0.938,0.702,2.246,0.7,3.181-0.006l13.199-9.942c0.231-0.174,0.376-0.44,0.396-0.729c0.021-0.289-0.085-0.572-0.29-0.777    c-0.144-0.143-3.64-3.5-14.672-2.98l-13.381-0.465l-0.99-1.128l8.937-7.781c0.905-0.789,1.113-2.109,0.495-3.137l-1.209-2.01    c-0.357-0.594-0.951-1.014-1.631-1.15L20.92,12.381c-0.995-0.202-2.015,0.248-2.541,1.112l-3.56,5.834    c-0.446,0.73-0.47,1.651-0.062,2.404l3.749,6.909c-0.381,0.784-0.85,1.521-1.104,1.725c-1.218,0.154-5.677,1.761-8.312,2.738    c-0.211,0.078-0.39,0.225-0.507,0.417l-1.205,1.98c-0.124,0.204-0.215,0.422-0.284,0.646l2.097-12.685l0.384-0.274l0.569,0.396    c0.39,0.271,0.883,0.341,1.334,0.19c0.45-0.151,0.802-0.506,0.948-0.957l4.455-13.667c0.371-1.138,1.567-1.776,2.719-1.456    l11.594,3.236l5.382,1.367c0.993,0.252,1.755,1.029,1.989,2.026l1.269,5.409c0.16,0.684-0.138,1.384-0.741,1.743l-1.32,0.786    c-0.025,0.014-0.051,0.029-0.076,0.045l-4.525,2.693c-0.508,0.303-0.791,0.876-0.723,1.464c0.069,0.588,0.478,1.08,1.043,1.256    l6,1.875c0.53,0.167,1.114,0.024,1.508-0.371c0.395-0.395,0.538-0.976,0.371-1.508l-1.082-3.461l0.34-0.202    c1.167-0.695,1.923-1.837,2.159-3.106l1.738,1.506c-0.016,0.15-0.031,0.299-0.046,0.443c-0.257,2.435-0.354,3.634,0.229,4.282    c0.233,0.259,0.552,0.402,0.896,0.402c0.581,0,1.273-0.365,2.548-1.064c0.725-0.397,2.007-1.101,2.595-1.229    c0.179,0.378,0.374,1.168,0.5,1.673c0.366,1.476,0.712,2.87,1.94,2.87c0.242,0,0.479-0.056,0.78-0.126    c1.268-0.297,3.384-0.796,5.231,3.135c0.137,0.291,0.404,0.498,0.72,0.557l10.074,1.901l9.821,4.481    c0.101,0.046,0.205,0.081,0.313,0.104c2.392,0.505,4.371,1.022,6.015,1.527C85.665,41.897,84.854,42,84.854,42l-25.553,0.661    c-0.302,0.008-0.322,0.45-0.022,0.484l18.262,2.688c10.546,1.554,13.948-0.258,15.046-1.643c1.021,0.688,1.331,1.168,1.394,1.282    c0.086,0.369,0.283,0.669,0.618,0.874c0.157,0.118,0.311,0.355,0.419,0.691c-1.983,1.504-12.46,2.066-18.643,2.066    c-10.854,0-25.099-5.864-25.241-5.924c-0.285-0.118-0.609-0.098-0.878,0.055s-0.452,0.421-0.496,0.727    c-0.223,1.555-0.834,2.686-1.816,3.363c-1.771,1.222-4.258,0.687-4.281,0.68c-0.073-0.017-0.149-0.025-0.225-0.025    c-3.893,0-12.574-6.859-15.591-9.502c-0.265-0.231-0.631-0.307-0.961-0.201l-3.75,1.188c-0.491,0.155-0.784,0.659-0.676,1.163    c0.375,1.752,0.541,4.139-0.802,5.557c-1.298,1.37-3.841,1.772-7.565,1.183c-3.268-0.515-5.521-1.684-6.7-3.474    c-1.362-2.07-0.814-4.353-0.801-4.409c0.071-0.268,0.025-0.539-0.105-0.76c0.05-0.094,0.09-0.179,0.141-0.274    C6.709,38.301,6.765,38.14,6.792,37.973z M20.504,28.127l-3.988-7.349c-0.069-0.128-0.065-0.285,0.011-0.409l3.56-5.834    c0.092-0.149,0.264-0.227,0.44-0.193l11.148,2.239c0.13,0.026,0.243,0.106,0.311,0.219l1.21,2.011    c0.117,0.196,0.078,0.448-0.095,0.598l-9.694,8.439c-0.201,0.175-0.323,0.422-0.342,0.688c-0.018,0.265,0.071,0.527,0.246,0.727    l1.938,2.208c0.183,0.207,0.441,0.33,0.717,0.34l13.894,0.479c6.958-0.323,10.612,0.932,12.215,1.747l-12.062,9.086    c-0.229,0.171-0.55,0.173-0.778,0.001L28.63,35.201c-5.025-4.071-7.236-3.56-7.795-3.305c-0.084,0.038-0.161,0.087-0.231,0.146    l-1.166,0.987c-0.194,0.165-0.318,0.398-0.348,0.651l-1.073,9.586c-0.003,0.137-0.06,0.264-0.157,0.357l-0.573,0.55    c-0.125,0.12-0.311,0.17-0.491,0.13c-4.167-0.865-6.797-5.077-7.734-6.848c-0.154-0.292-0.145-0.636,0.026-0.917l1.023-1.682    c3.273-1.207,6.887-2.447,7.452-2.505c1.017,0,2.02-1.128,2.98-3.354C20.665,28.719,20.651,28.397,20.504,28.127z M37.651,25.88    l-0.06-0.019l0.045-0.027L37.651,25.88z M3.208,54.694l0.596-1.151c2.121,1.278,6.57,3.596,12.846,4.936h-5.088    C6.36,58.479,4.009,55.877,3.208,54.694z M41.88,53.605l-4.875,0.188c-0.213,0.009-0.422,0.062-0.613,0.157l-6.903,3.451    C16.537,58.254,7.264,53.314,4.47,51.598c-0.038-0.236-0.121-0.466-0.27-0.665c-0.021-0.027-1.572-2.567,0.506-8.289    c0.182,0.743,0.487,1.535,0.995,2.315c1.496,2.299,4.215,3.773,8.081,4.383c4.412,0.694,7.55,0.095,9.329-1.784    c1.41-1.49,1.903-3.659,1.47-6.455l2.375-0.752c2.295,1.968,11.413,9.517,16.374,9.627c0.616,0.119,3.463,0.559,5.733-0.997    c1.173-0.803,1.982-1.979,2.418-3.509c3.636,1.411,15.313,5.632,24.894,5.632c2.5,0,14.004-0.099,18.595-1.829    c-0.159,0.647-0.425,1.396-0.871,2.277c-0.024,0.048-0.067,0.093-0.094,0.141c-0.204-0.028-0.415-0.01-0.608,0.096    c-6.554,3.574-14.519,1.562-15.747,1.217c-3.248-2.465-6.843-2.436-10.433,0.107c-4.245,3.182-16.953,3.697-18.173,3.738    l-6.457-3.099C42.366,53.646,42.123,53.592,41.88,53.605z M75.975,58.104H57.53c4.043-0.58,8.493-1.597,10.864-3.375    c2.908-2.06,5.581-2.071,8.175-0.03c0.095,0.074,0.202,0.131,0.317,0.168c0.267,0.084,4.697,1.445,9.986,0.908    C83.281,56.927,79.094,57.734,75.975,58.104z"/></g></g></g><g transform="matrix(0.49027299880981445, 0, 0, 0.49027299880981445, 903.8084213654852, 30.1085967022525)"><g><g><g><path d="M677.5,220.8c11.4,11.4,22,23.5,31.8,36.2c-2.6-3.4-5.2-6.7-7.8-10.1c19.6,25.5,35.9,53.4,48.4,83     c-1.7-4-3.4-8-5-11.9c12.6,30.3,21.3,62,25.7,94.5c-0.6-4.4-1.2-8.9-1.8-13.3c4.4,33.2,4.4,66.8,0,100c0.6-4.4,1.2-8.9,1.8-13.3     c-4.4,32.5-13.1,64.3-25.7,94.5c1.7-4,3.4-8,5-11.9c-12.5,29.6-28.8,57.5-48.4,83c2.6-3.4,5.2-6.7,7.8-10.1     c-19.7,25.4-42.6,48.3-68,68c3.4-2.6,6.7-5.2,10.1-7.8c-25.5,19.6-53.4,35.9-83,48.4c4-1.7,8-3.4,11.9-5     c-30.3,12.6-62,21.3-94.5,25.7c4.4-0.6,8.9-1.2,13.3-1.8c-33.2,4.4-66.8,4.4-100,0c4.4,0.6,8.9,1.2,13.3,1.8     c-32.5-4.4-64.3-13.1-94.5-25.7c4,1.7,8,3.4,11.9,5c-29.6-12.5-57.5-28.8-83-48.4c3.4,2.6,6.7,5.2,10.1,7.8     c-25.4-19.7-48.3-42.6-68-68c2.6,3.4,5.2,6.7,7.8,10.1c-19.6-25.5-35.9-53.4-48.4-83c1.7,4,3.4,8,5,11.9     c-12.6-30.3-21.3-62-25.7-94.5c0.6,4.4,1.2,8.9,1.8,13.3c-4.4-33.2-4.4-66.8,0-100c-0.6,4.4-1.2,8.9-1.8,13.3     c4.4-32.5,13.1-64.3,25.7-94.5c-1.7,4-3.4,8-5,11.9c12.5-29.6,28.8-57.5,48.4-83c-2.6,3.4-5.2,6.7-7.8,10.1     c19.7-25.4,42.6-48.3,68-68c-3.4,2.6-6.7,5.2-10.1,7.8c25.5-19.6,53.4-35.9,83-48.4c-4,1.7-8,3.4-11.9,5     c30.3-12.6,62-21.3,94.5-25.7c-4.4,0.6-8.9,1.2-13.3,1.8c33.2-4.4,66.8-4.4,100,0c-4.4-0.6-8.9-1.2-13.3-1.8     c32.5,4.4,64.3,13.1,94.5,25.7c-4-1.7-8-3.4-11.9-5c29.6,12.5,57.5,28.8,83,48.4c-3.4-2.6-6.7-5.2-10.1-7.8     C654,198.8,666.1,209.4,677.5,220.8c9.1,9.1,22.5,14.6,35.4,14.6c12.3,0,26.9-5.4,35.4-14.6c8.7-9.5,15.2-22,14.6-35.4     c-0.6-13.2-5.1-25.8-14.6-35.4c-60.4-60.2-139.8-103-224.2-117c-41.5-6.9-83.1-9-124.9-3.5c-22.8,3-45.2,6.8-67.2,13.1     c-22.4,6.5-44.2,15.2-65.3,25c-38.8,18-74.5,43.1-105.9,72.1c-32,29.6-59.7,64.9-80.9,102.9c-40.6,73.1-60,159.3-51.9,242.7     c4.3,44.3,14.3,86.5,31.6,127.4c17.6,41.7,41.1,79.2,70.6,113.7c55.6,65.1,133.4,112.5,216.5,132.9c40.6,10,83.4,14.4,125.2,11.9     c41.6-2.5,83.2-10.3,122.2-25c21.9-8.3,43.5-17.8,63.9-29.4c20.4-11.5,39.1-25.2,57.5-39.7c34.4-27.2,63.7-60.6,87.9-97.1     c46.5-70.1,70.7-156.1,68.7-240.1c-2-84.1-28.9-168.9-78.9-236.9c-13.8-18.7-28.4-36.7-44.9-53.2c-9-9.1-22.6-14.6-35.4-14.6     c-12.3,0-26.9,5.4-35.4,14.6c-8.7,9.5-15.2,22-14.6,35.4C663.4,198.7,667.9,211.2,677.5,220.8z"/></g></g><g><g><path d="M983.2,912.5c-26.5-26.5-53.1-53.1-79.6-79.6c-42.2-42.2-84.4-84.4-126.6-126.6     c-9.6-9.6-19.2-19.2-28.7-28.7c-9.1-9.1-22.5-14.6-35.4-14.6c-12.3,0-26.9,5.4-35.4,14.6c-8.7,9.5-15.2,22-14.6,35.4     c0.6,13.3,5.1,25.8,14.6,35.4c26.5,26.5,53.1,53.1,79.6,79.6c42.2,42.2,84.4,84.4,126.6,126.6c9.6,9.6,19.2,19.2,28.7,28.7     c9.1,9.1,22.5,14.6,35.4,14.6c12.3,0,26.9-5.4,35.4-14.6c8.7-9.5,15.2-22,14.6-35.4C997.2,934.5,992.7,922,983.2,912.5     L983.2,912.5z"/></g></g><g><g><g><path d="M499.1,532.7c0-9.8-0.7-20,0.4-29.8c-0.6,4.4-1.2,8.9-1.8,13.3c0.7-5.2,2-10.1,4-15c-1.7,4-3.4,8-5,11.9      c2-4.7,4.6-9.1,7.7-13.2c-2.6,3.4-5.2,6.7-7.8,10.1c3.2-4.1,6.8-7.6,10.9-10.8c-3.4,2.6-6.7,5.2-10.1,7.8      c3.8-2.9,7.9-5.2,12.3-7.2c-4,1.7-8,3.4-11.9,5c10.9-4.6,22-8.5,32.1-14.6c9.9-6,19.2-13.2,27.7-21.1      c13.7-12.7,25.6-28.8,33.1-45.9c9.8-22.3,16-45.1,15.6-69.8c-0.4-23.6-6.2-44.6-15.6-66c-3-6.8-6.6-13.3-10.9-19.3      c-6.4-9-13.3-18.1-21.4-25.8c-16.8-15.9-35.2-26.4-56.6-34.7c-17.9-7-38.3-9.9-57.4-9c-25.7,1.2-50.7,7.9-73.1,20.7      c-48.5,27.6-78.5,80.7-78.9,136.2c-0.1,12.8,5.6,26.4,14.6,35.4c8.7,8.7,22.9,15.2,35.4,14.6c27.3-1.2,49.8-22,50-50      c0-5,0.4-9.9,1-14.8c-0.6,4.4-1.2,8.9-1.8,13.3c1.3-9,3.7-17.7,7.1-26.1c-1.7,4-3.4,8-5,11.9c3.7-8.7,8.3-16.7,14-24.3      c-2.6,3.4-5.2,6.7-7.8,10.1c5.8-7.4,12.3-13.9,19.7-19.7c-3.4,2.6-6.7,5.2-10.1,7.8c7.5-5.7,15.6-10.4,24.3-14      c-4,1.7-8,3.4-11.9,5c8.4-3.4,17.1-5.8,26.1-7.1c-4.4,0.6-8.9,1.2-13.3,1.8c10-1.3,20-1.3,30,0c-4.4-0.6-8.9-1.2-13.3-1.8      c9.3,1.4,18.3,3.9,27,7.5c-4-1.7-8-3.4-11.9-5c8.4,3.7,16.3,8.3,23.6,13.9c-3.4-2.6-6.7-5.2-10.1-7.8      c7.2,5.6,13.6,12.1,19.2,19.3c-2.6-3.4-5.2-6.7-7.8-10.1c5.6,7.3,10.1,15.2,13.7,23.7c-1.7-4-3.4-8-5-11.9      c3.6,8.7,6,17.8,7.3,27.1c-0.6-4.4-1.2-8.9-1.8-13.3c1.2,9.5,1.2,18.9,0.1,28.4c0.6-4.4,1.2-8.9,1.8-13.3      c-1.3,9.4-3.7,18.5-7.3,27.3c1.7-4,3.4-8,5-11.9c-3.6,8.5-8.3,16.5-13.8,23.9c2.6-3.4,5.2-6.7,7.8-10.1      c-5.7,7.3-12.1,13.8-19.3,19.4c3.4-2.6,6.7-5.2,10.1-7.8c-7.4,5.6-15.3,10.3-23.8,14c4-1.7,8-3.4,11.9-5      c-8.6,3.6-17.5,6.5-25.5,11.3c-7.8,4.7-15.3,10.5-21.7,17c-12.8,13.1-22.4,29.5-27.4,47.2c-4.7,16.8-3.9,34.2-3.9,51.4      c0,12.8,5.6,26.3,14.6,35.4c8.7,8.7,22.9,15.2,35.4,14.6c12.9-0.6,26.3-4.8,35.4-14.6C493.5,558.3,499.1,546.3,499.1,532.7      L499.1,532.7z"/></g></g><g><g><path d="M449.1,699.7c12.8,0,26.3-5.6,35.4-14.6c8.7-8.7,15.2-22.9,14.6-35.4c-0.6-12.9-4.8-26.3-14.6-35.4      c-9.8-9-21.8-14.6-35.4-14.6c-12.8,0-26.3,5.6-35.4,14.6c-8.7,8.7-15.2,22.9-14.6,35.4c0.6,12.9,4.8,26.3,14.6,35.4      C423.6,694,435.6,699.7,449.1,699.7L449.1,699.7z"/></g></g></g></g></g></svg>